<?xml version="1.0" standalone="no"?>
<!DOCTYPE svg PUBLIC "-//W3C//DTD SVG 20010904//EN"
 "http://www.w3.org/TR/2001/REC-SVG-20010904/DTD/svg10.dtd">
<svg version="1.0" xmlns="http://www.w3.org/2000/svg"
 width="512.000000pt" height="512.000000pt" viewBox="0 0 512.000000 512.000000"
 preserveAspectRatio="xMidYMid meet">
<metadata>
Created by potrace 1.14, written by Peter Selinger 2001-2017
</metadata>
<g transform="translate(0.000000,512.000000) scale(0.100000,-0.100000)"
fill="#000000" stroke="none">
<path d="M2805 5101 c-244 -70 -418 -304 -403 -545 l4 -63 -91 0 c-191 1 -354
-89 -455 -250 -129 -204 -118 -445 29 -631 l41 -51 0 -114 c0 -100 2 -116 20
-135 38 -40 69 -32 215 56 56 34 66 37 150 38 236 5 438 149 515 366 16 44 24
92 26 162 l4 99 87 -2 c87 -2 87 -3 188 -62 56 -32 112 -59 124 -59 12 0 33
11 46 25 24 23 25 31 25 135 l0 111 40 50 c173 219 153 534 -46 733 -65 65
-170 124 -251 141 -69 15 -209 13 -268 -4z"/>
<path d="M4233 4589 c-46 -16 -76 -35 -113 -71 l-49 -50 -45 15 c-25 9 -79 15
-126 15 -183 0 -335 -97 -417 -266 l-38 -77 0 -260 c1 -263 2 -282 31 -350 8
-21 12 -41 7 -45 -4 -3 -32 -23 -61 -44 -77 -56 -141 -146 -190 -268 -10 -24
-21 -88 -28 -158 -1 -14 -2 -28 -3 -32 -1 -4 -7 -6 -13 -3 -14 4 -97 12 -208
21 -77 6 -113 -7 -125 -45 -6 -19 -16 -19 -225 -18 l-220 2 -10 26 c-20 47
-47 51 -265 33 -49 -4 -119 -7 -154 -8 l-63 -1 -4 50 c-14 169 -108 331 -245
422 -21 14 -39 26 -39 27 0 1 10 29 22 61 21 56 23 78 25 305 1 232 0 249 -21
311 -20 57 -53 114 -98 170 -30 36 -122 99 -175 119 -218 82 -464 -15 -567
-223 -47 -96 -54 -151 -51 -406 2 -195 4 -221 23 -271 12 -30 22 -58 22 -61 0
-4 -17 -18 -38 -31 -116 -78 -193 -190 -230 -335 -16 -64 -19 -68 -47 -71 -51
-6 -148 -56 -194 -102 -24 -24 -57 -73 -74 -109 l-31 -66 -1 -232 -1 -232 -47
-63 c-102 -136 -152 -282 -143 -417 3 -42 7 -83 9 -91 9 -41 40 -121 58 -150
5 -8 12 -22 16 -30 28 -63 160 -206 259 -282 71 -54 173 -122 198 -131 10 -4
16 -13 13 -20 -2 -6 -10 -38 -17 -69 l-13 -57 -51 -12 c-136 -32 -245 -141
-274 -276 -4 -21 -8 -148 -7 -283 1 -224 3 -249 21 -290 25 -54 71 -103 128
-133 41 -22 45 -22 580 -25 l540 -2 35 24 c20 13 155 99 301 191 146 92 273
177 284 189 80 90 74 222 -14 308 -34 32 -42 45 -29 43 141 -27 961 -26 1036
2 10 4 0 -11 -22 -33 -56 -55 -77 -103 -76 -175 0 -47 6 -71 26 -104 29 -51
26 -49 375 -271 l265 -169 545 0 545 0 43 23 c83 44 143 133 145 213 1 41 -15
66 -50 80 -22 8 -23 13 -23 129 0 116 1 121 23 129 35 14 49 37 50 83 1 131
-78 257 -200 318 -32 16 -69 30 -83 30 -37 0 -46 10 -59 65 -6 28 -14 57 -17
67 -3 11 11 25 51 48 186 106 357 273 436 425 51 96 63 152 63 270 0 95 -4
120 -27 178 -28 71 -87 178 -113 204 -45 46 -47 54 -49 296 l-2 232 -30 66
c-17 36 -49 85 -74 109 -48 47 -148 100 -191 100 -31 0 -35 5 -42 47 -3 16
-12 48 -20 71 -14 40 -14 43 8 69 26 32 55 84 63 116 10 40 10 960 0 1002 -42
171 -234 272 -404 214z"/>
</g>
</svg>
